<!-- <svg xmlns="http://www.w3.org/2000/svg" enable-background="new 0 0 24 24" height="24" viewBox="0 0 24 24" width="24"><g><rect fill="none" height="24" width="24"/></g><g><g enable-background="new"><g><path d="M12,14c1.66,0,3-1.34,3-3V5c0-1.66-1.34-3-3-3S9,3.34,9,5v6C9,12.66,10.34,14,12,14z"/><path d="M17.91,11c-0.49,0-0.9,0.36-0.98,0.85C16.52,14.21,14.47,16,12,16s-4.52-1.79-4.93-4.15C6.99,11.36,6.58,11,6.09,11h0 c-0.61,0-1.09,0.54-1,1.14c0.49,3,2.89,5.34,5.91,5.78V20c0,0.55,0.45,1,1,1h0c0.55,0,1-0.45,1-1v-2.08 c3.02-0.44,5.42-2.78,5.91-5.78C19.01,11.54,18.52,11,17.91,11L17.91,11z"/></g></g></g></svg> -->
<svg class="HPVvwb" focusable="false" viewBox="0 0 24 24" xmlns="http://www.w3.org/2000/svg"><path d="m12 15c1.66 0 3-1.31 3-2.97v-7.02c0-1.66-1.34-3.01-3-3.01s-3 1.34-3 3.01v7.02c0 1.66 1.34 2.97 3 2.97z" fill="#4285f4"></path><path d="m11 18.08h2v3.92h-2z" fill="#34a853"></path><path d="m7.05 16.87c-1.27-1.33-2.05-2.83-2.05-4.87h2c0 1.45 0.56 2.42 1.47 3.38v0.32l-1.15 1.18z" fill="#f4b400"></path><path d="m12 16.93a4.97 5.25 0 0 1 -3.54 -1.55l-1.41 1.49c1.26 1.34 3.02 2.13 4.95 2.13 3.87 0 6.99-2.92 6.99-7h-1.99c0 2.92-2.24 4.93-5 4.93z" fill="#ea4335"></path></svg>